<svg viewBox="0 0 205 58" fill="none" xmlns="http://www.w3.org/2000/svg">
<path d="M13.5205 0C13.5702 0.000358409 13.685 0.203745 13.7754 0.452148C13.866 0.701112 14.3069 1.46727 14.7559 2.15527C15.6863 3.58166 17.286 5.17253 18.7568 6.13477C19.2937 6.48601 20.298 7.14043 20.9883 7.58887C21.6785 8.03726 22.6038 8.75296 23.0449 9.17969L23.8467 9.95605V6.6748H24.8359L25.167 7.0293L25.4971 7.38477L25.5879 7.09961C25.6378 6.94248 25.7611 6.81348 25.8613 6.81348C25.962 6.81338 26.2401 6.77434 26.4795 6.72656L26.915 6.63965V15.1084L27.2764 15.4453C28.3264 16.4238 29.6745 18.9519 30.2051 20.9385L30.4619 21.9004L30.4531 23.7773L30.4453 25.6553L30.0732 26.8779C28.8494 30.905 26.1841 33.6125 22.2891 34.7852L21.2666 35.0928L15.3057 35.1455L9.34375 35.1982V49.8604L8.68066 50.4912C7.6247 51.4978 5.58408 53.2568 5.47168 53.2568C5.41526 53.2477 5.38548 45.3357 5.40527 35.667L5.44043 18.0762H9.34375V31.1475H12.8301V28.5332C12.8301 27.0201 12.773 25.8618 12.6943 25.7832C12.4631 25.5527 12.8585 24.5833 13.4072 24.0361C14.5175 22.9292 16.1124 23.2632 16.8799 24.7627C17.1829 25.3549 17.2253 25.7359 17.0107 25.9502C16.9211 26.0396 16.8813 27.0185 16.9053 28.585L16.9443 31.0781L18.6875 31.0713C21.4844 31.0609 22.9832 30.5258 24.4746 29.0039C25.4889 27.9689 25.9953 27.0667 26.3604 25.6436C26.7098 24.2811 26.7095 23.1359 26.3604 21.7744C25.674 19.0996 23.9668 17.347 21.1973 16.4756L20.4307 16.2344L16.0654 16.165C13.6651 16.1269 9.97866 16.1421 7.87305 16.1982L4.04395 16.3008L4.03516 35.4395L4.02539 54.5771L2.28516 56.0986C1.32861 56.9347 0.423206 57.7041 0.272461 57.8096L0 58V6.6748H0.424805C0.701483 6.6748 0.965764 6.79806 1.18066 7.0293L1.51074 7.38477L1.59961 7.10352C1.69423 6.80769 2.46662 6.5752 2.85742 6.72461L3.06836 6.80469V10.0508L3.60742 9.44043C4.16343 8.81122 4.37897 8.65542 7.47852 6.62402C8.48509 5.96437 9.75539 5.01115 10.3018 4.50684C11.2903 3.59415 12.663 1.71731 13.166 0.59082C13.311 0.265866 13.4709 0 13.5205 0ZM161.255 14.748C164.406 15.3884 166.585 16.5301 168.914 18.7607C169.745 19.5569 170.407 20.2865 170.386 20.3828C170.363 20.4783 169.879 20.8964 169.31 21.3115L168.273 22.0664L167.445 21.1826C165.84 19.4713 163.54 18.099 161.28 17.501L160.165 17.2051L158.003 17.2021L155.842 17.1992L154.727 17.4971C153.287 17.8814 151.085 18.9744 149.846 19.9199C147.8 21.4809 146.072 24.184 145.376 26.916L145.024 28.2969L145.025 30.04C145.027 34.5803 146.925 38.4583 150.4 41.0186C151.395 41.7515 153.431 42.7094 154.727 43.0547L155.702 43.3145L158.003 43.3125L160.305 43.3096L161.269 43.0518C163.733 42.3914 165.429 41.3901 167.199 39.5518L168.356 38.3506L169.421 39.083C170.004 39.4842 170.506 39.8321 170.54 39.8584C170.665 39.9573 169.778 41.049 168.838 41.9531C162.195 48.3402 150.477 47.2596 145.149 39.7686C141.253 34.2893 141.119 26.8909 144.817 21.3486C147.108 17.9164 150.568 15.6419 154.865 14.7432C155.71 14.5664 156.728 14.4774 157.981 14.4707L159.842 14.4609L161.255 14.748ZM77.7812 14.9082L79.1416 14.9482L79.1768 28.957L79.2119 42.9668H94.6904V45.75L85.5215 45.7139L76.3516 45.6787L76.3662 39.2822C76.374 35.7642 76.3899 28.8316 76.4014 23.877L76.4219 14.8682L77.7812 14.9082ZM121.12 14.8789L124.566 22.9785C126.462 27.4332 128.774 32.8615 129.703 35.041C131.444 39.1217 133.99 45.1205 134.118 45.4395L134.189 45.6182L132.624 45.5791L131.058 45.5391L129.298 41.333L127.537 37.127H118.884L118.266 35.8408C117.926 35.1346 117.625 34.5104 117.594 34.4521C117.564 34.3958 119.515 34.3327 121.93 34.3125L126.321 34.2764L125.174 31.5645C124.543 30.0732 123.568 27.7582 123.007 26.4199C122.446 25.0816 121.531 22.9222 120.974 21.6221C120.417 20.3221 119.854 19.008 119.724 18.7021L119.486 18.1465L119.003 19.1895C117.886 21.5978 114.439 29.8077 109.43 41.9932L107.972 45.5391L106.387 45.6152C105.522 45.6566 104.803 45.6875 104.779 45.6846C104.767 45.681 105.166 44.7087 105.665 43.5234C107.447 39.2956 108.823 36.0439 109.962 33.3721C110.598 31.8807 111.538 29.6592 112.053 28.4355C112.567 27.2118 113.868 24.1777 114.942 21.6924C116.017 19.2068 117.118 16.6564 117.389 16.0254L117.882 14.8789H121.12ZM49.6025 14.9092L51.2383 14.9482L53.2334 19.6064C54.3307 22.1685 56.3547 26.9237 57.7314 30.1738C59.1082 33.4241 61.1401 38.2113 62.2471 40.8115L64.2598 45.5391L62.7871 45.5791C61.9772 45.6009 61.2669 45.5698 61.209 45.5098C61.1507 45.4489 60.3736 43.6524 59.4814 41.5176C58.589 39.3825 57.7968 37.5209 57.7217 37.3809L57.5859 37.127H49.1084L48.4307 35.8408L47.7539 34.5537L49.9902 34.4688C51.2203 34.422 53.1521 34.3758 54.2832 34.3652C55.4097 34.3547 56.3321 34.3202 56.3398 34.2891C56.3398 34.1767 53.5539 27.3937 52.165 24.125C51.3851 22.2896 50.4897 20.1745 50.1758 19.4248C49.8619 18.6751 49.5568 18.1124 49.4971 18.1738C49.4372 18.2359 49.2661 18.5985 49.1172 18.9805C48.968 19.363 48.4227 20.6769 47.9053 21.9004C47.3879 23.1241 46.07 26.2844 44.9766 28.9229C43.8829 31.5614 42.1114 35.816 41.04 38.3779C39.9688 40.9395 38.8545 43.6142 38.5625 44.3223L38.0312 45.6084H34.9736L35.043 45.4346C35.2257 44.9752 38.4711 37.2537 39.6748 34.415C43.0387 26.4813 43.7292 24.8521 44.418 23.2217C46.0086 19.4555 47.4027 16.1673 47.6777 15.5342L47.9668 14.8691L49.6025 14.9092ZM204.86 14.8789V17.5205H186.174V28.7832H202.49V31.4258H186.174V42.9668H205V45.6084H183.208L183.295 45.0869C183.342 44.7944 183.382 37.8821 183.383 29.7217L183.385 14.8789H204.86Z" fill="currentColor"/>
</svg>