<svg viewBox="0 0 306.0703125 58" fill="none" xmlns="http://www.w3.org/2000/svg">
<path d="M13.5205 0C13.5702 0.000358408 13.685 0.203745 13.7754 0.452148C13.866 0.701112 14.3069 1.46727 14.7559 2.15527C15.6863 3.58166 17.286 5.17253 18.7568 6.13477C19.2937 6.48601 20.298 7.14043 20.9883 7.58887C21.6785 8.03726 22.6038 8.75296 23.0449 9.17969L23.8467 9.95605V6.6748H24.8359L25.167 7.0293L25.4971 7.38477L25.5879 7.09961C25.6378 6.94248 25.7611 6.81348 25.8613 6.81348C25.962 6.81338 26.2401 6.77434 26.4795 6.72656L26.915 6.63965V15.1084L27.2764 15.4453C28.3264 16.4238 29.6745 18.9519 30.2051 20.9385L30.4619 21.9004L30.4531 23.7773L30.4453 25.6553L30.0732 26.8779C28.8494 30.905 26.1841 33.6125 22.2891 34.7852L21.2666 35.0928L15.3057 35.1455L9.34375 35.1982V49.8604L8.68066 50.4912C7.6247 51.4978 5.58408 53.2568 5.47168 53.2568C5.41526 53.2477 5.38548 45.3357 5.40527 35.667L5.44043 18.0762H9.34375V31.1475H12.8301V28.5332C12.8301 27.0201 12.773 25.8618 12.6943 25.7832C12.4631 25.5527 12.8585 24.5833 13.4072 24.0361C14.5175 22.9292 16.1124 23.2632 16.8799 24.7627C17.1829 25.3549 17.2253 25.7359 17.0107 25.9502C16.9211 26.0396 16.8813 27.0185 16.9053 28.585L16.9443 31.0781L18.6875 31.0713C21.4844 31.0609 22.9832 30.5258 24.4746 29.0039C25.4889 27.9689 25.9953 27.0667 26.3604 25.6436C26.7098 24.2811 26.7095 23.1359 26.3604 21.7744C25.674 19.0996 23.9668 17.347 21.1973 16.4756L20.4307 16.2344L16.0654 16.165C13.6651 16.1269 9.97866 16.1421 7.87305 16.1982L4.04395 16.3008L4.03516 35.4395L4.02539 54.5771L2.28516 56.0986C1.32861 56.9347 0.423206 57.7041 0.272461 57.8096L0 58V6.6748H0.424805C0.701483 6.6748 0.965764 6.79806 1.18066 7.0293L1.51074 7.38477L1.59961 7.10352C1.69423 6.80769 2.46662 6.5752 2.85742 6.72461L3.06836 6.80469V10.0508L3.60742 9.44043C4.16343 8.81122 4.37897 8.65542 7.47852 6.62402C8.48509 5.96437 9.75539 5.01115 10.3018 4.50684C11.2903 3.59415 12.663 1.71731 13.166 0.59082C13.311 0.265866 13.4709 0 13.5205 0ZM222.56 30.0322C223.424 30.0322 224.192 30.1516 224.864 30.3916C225.552 30.6156 226.161 30.9524 226.688 31.4004C227.216 31.8482 227.672 32.3841 228.056 33.0078L226.736 34.3037C226.4 33.7757 226.016 33.3195 225.584 32.9355C225.168 32.5518 224.704 32.2642 224.192 32.0723C223.696 31.8643 223.144 31.7598 222.536 31.7598C221.832 31.7598 221.208 31.8801 220.664 32.1201C220.136 32.3601 219.72 32.696 219.416 33.1279C219.112 33.5439 218.96 34.0244 218.96 34.5684C218.96 34.9682 219.032 35.3285 219.176 35.6484C219.32 35.9522 219.544 36.224 219.848 36.4639C220.168 36.6879 220.576 36.8959 221.072 37.0879C221.584 37.2639 222.193 37.4318 222.896 37.5918C223.728 37.7838 224.472 38.0161 225.128 38.2881C225.8 38.5601 226.368 38.8885 226.832 39.2725C227.312 39.6404 227.672 40.0724 227.912 40.5684C228.168 41.0643 228.296 41.6326 228.296 42.2725C228.296 43.2642 228.048 44.1358 227.552 44.8877C227.056 45.6237 226.36 46.2002 225.464 46.6162C224.584 47.0321 223.552 47.2402 222.368 47.2402C221.52 47.2402 220.72 47.1199 219.968 46.8799C219.216 46.6399 218.528 46.2797 217.904 45.7998C217.28 45.3199 216.728 44.7283 216.248 44.0244L217.544 42.584C218.296 43.6558 219.064 44.4078 219.848 44.8398C220.648 45.2718 221.544 45.4883 222.536 45.4883C223.256 45.4883 223.912 45.3679 224.504 45.1279C225.096 44.8879 225.56 44.5521 225.896 44.1201C226.232 43.6882 226.4 43.1918 226.4 42.6318C226.4 42.2641 226.336 41.9363 226.208 41.6484C226.096 41.3604 225.92 41.1039 225.68 40.8799C225.44 40.656 225.144 40.4562 224.792 40.2803C224.44 40.1043 224.032 39.9438 223.568 39.7998C223.12 39.6558 222.616 39.5122 222.056 39.3682C221.24 39.1762 220.52 38.9522 219.896 38.6963C219.288 38.4243 218.768 38.0959 218.336 37.7119C217.92 37.3279 217.6 36.8876 217.376 36.3916C217.168 35.8797 217.064 35.2796 217.064 34.5918C217.064 33.9359 217.2 33.3275 217.472 32.7676C217.76 32.2077 218.152 31.7281 218.648 31.3281C219.144 30.9122 219.728 30.5921 220.4 30.3682C221.072 30.1443 221.792 30.0323 222.56 30.0322ZM297.814 30.0322C299.014 30.0323 300.111 30.2477 301.103 30.6797C302.11 31.0957 302.982 31.6965 303.718 32.4805C304.47 33.2484 305.046 34.1599 305.446 35.2158C305.862 36.2558 306.07 37.4004 306.07 38.6484C306.07 39.8803 305.862 41.0242 305.446 42.0801C305.046 43.1201 304.47 44.0324 303.718 44.8164C302.982 45.5841 302.11 46.1843 301.103 46.6162C300.111 47.0322 299.014 47.2402 297.814 47.2402C296.631 47.2402 295.534 47.0322 294.526 46.6162C293.534 46.1842 292.662 45.5843 291.91 44.8164C291.174 44.0484 290.599 43.1435 290.183 42.1035C289.783 41.0477 289.582 39.8961 289.582 38.6484C289.582 37.4004 289.783 36.2558 290.183 35.2158C290.599 34.1601 291.174 33.2483 291.91 32.4805C292.662 31.6965 293.534 31.0957 294.526 30.6797C295.534 30.2477 296.631 30.0322 297.814 30.0322ZM246.903 40.3516C246.903 41.2956 247.111 42.1445 247.527 42.8965C247.943 43.6484 248.504 44.2399 249.208 44.6719C249.928 45.1038 250.728 45.3203 251.607 45.3203C252.535 45.3203 253.36 45.1039 254.08 44.6719C254.816 44.24 255.392 43.6482 255.808 42.8965C256.224 42.1445 256.432 41.2956 256.432 40.3516V30.2002H258.231V40.5684C258.231 41.832 257.944 42.9678 257.368 43.9756C256.808 44.9676 256.024 45.7521 255.016 46.3281C254.024 46.8881 252.887 47.168 251.607 47.168C250.344 47.1679 249.216 46.8881 248.224 46.3281C247.232 45.7521 246.448 44.9676 245.872 43.9756C245.312 42.9677 245.031 41.8321 245.031 40.5684V30.2002H246.903V40.3516ZM241.985 32.0244H236.993V47H235.121V32.0244H230.321V30.2002H241.985V32.0244ZM269.417 30.2002C270.569 30.2002 271.618 30.4082 272.562 30.8242C273.521 31.2242 274.354 31.7998 275.058 32.5518C275.762 33.3037 276.305 34.1919 276.689 35.2158C277.073 36.2397 277.266 37.3678 277.266 38.5996C277.266 39.8315 277.073 40.9679 276.689 42.0078C276.305 43.0317 275.762 43.9199 275.058 44.6719C274.37 45.4079 273.545 45.9844 272.585 46.4004C271.625 46.8003 270.569 47 269.417 47H263.081V30.2002H269.417ZM287.069 31.9756H284.357V45.2236H287.069V47H279.773V45.2236H282.485V31.9756H279.773V30.2002H287.069V31.9756ZM161.255 14.748C164.406 15.3884 166.585 16.5301 168.914 18.7607C169.745 19.5569 170.407 20.2865 170.386 20.3828C170.363 20.4783 169.879 20.8964 169.31 21.3115L168.273 22.0664L167.445 21.1826C165.84 19.4713 163.54 18.099 161.28 17.501L160.165 17.2051L158.003 17.2021L155.842 17.1992L154.727 17.4971C153.287 17.8814 151.085 18.9744 149.846 19.9199C147.8 21.4809 146.072 24.184 145.376 26.916L145.024 28.2969L145.025 30.04C145.027 34.5803 146.925 38.4583 150.4 41.0186C151.395 41.7515 153.431 42.7094 154.727 43.0547L155.702 43.3145L158.003 43.3125L160.305 43.3096L161.269 43.0518C163.733 42.3914 165.429 41.3901 167.199 39.5518L168.356 38.3506L169.421 39.083C170.004 39.4842 170.506 39.8321 170.54 39.8584C170.665 39.9573 169.778 41.049 168.838 41.9531C162.195 48.3402 150.477 47.2596 145.149 39.7686C141.253 34.2893 141.119 26.8909 144.817 21.3486C147.108 17.9164 150.568 15.6419 154.865 14.7432C155.71 14.5664 156.728 14.4774 157.981 14.4707L159.842 14.4609L161.255 14.748ZM77.7812 14.9082L79.1416 14.9482L79.1768 28.957L79.2119 42.9668H94.6904V45.75L85.5215 45.7139L76.3516 45.6787L76.3662 39.2822C76.374 35.7642 76.3899 28.8316 76.4014 23.877L76.4219 14.8682L77.7812 14.9082ZM124.566 22.9785C126.462 27.4332 128.774 32.8615 129.703 35.041C131.444 39.1217 133.99 45.1205 134.118 45.4395L134.189 45.6182L132.624 45.5791L131.058 45.5391L129.298 41.333L127.537 37.127H118.884L118.266 35.8408C117.926 35.1346 117.625 34.5104 117.594 34.4521C117.564 34.3958 119.515 34.3327 121.93 34.3125L126.321 34.2764L125.174 31.5645C124.543 30.0732 123.568 27.7582 123.007 26.4199C122.446 25.0816 121.531 22.9222 120.974 21.6221C120.417 20.3221 119.854 19.008 119.724 18.7021L119.486 18.1465L119.003 19.1895C117.886 21.5978 114.439 29.8077 109.43 41.9932L107.972 45.5391L106.387 45.6152C105.522 45.6566 104.803 45.6875 104.779 45.6846C104.767 45.681 105.166 44.7087 105.665 43.5234C107.447 39.2956 108.823 36.0439 109.962 33.3721C110.598 31.8807 111.538 29.6592 112.053 28.4355C112.567 27.2118 113.868 24.1777 114.942 21.6924C116.017 19.2068 117.118 16.6564 117.389 16.0254L117.882 14.8789H121.12L124.566 22.9785ZM49.6025 14.9092L51.2383 14.9482L53.2334 19.6064C54.3307 22.1685 56.3547 26.9237 57.7314 30.1738C59.1082 33.4241 61.1401 38.2113 62.2471 40.8115L64.2598 45.5391L62.7871 45.5791C61.9772 45.6009 61.2669 45.5698 61.209 45.5098C61.1507 45.4489 60.3736 43.6524 59.4814 41.5176C58.589 39.3825 57.7968 37.5209 57.7217 37.3809L57.5859 37.127H49.1084L48.4307 35.8408L47.7539 34.5537L49.9902 34.4688C51.2203 34.422 53.1521 34.3758 54.2832 34.3652C55.4097 34.3547 56.3321 34.3202 56.3398 34.2891C56.3398 34.1767 53.5539 27.3937 52.165 24.125C51.3851 22.2896 50.4897 20.1745 50.1758 19.4248C49.8619 18.6751 49.5568 18.1124 49.4971 18.1738C49.4372 18.2359 49.2661 18.5985 49.1172 18.9805C48.968 19.363 48.4227 20.6769 47.9053 21.9004C47.3879 23.1241 46.07 26.2844 44.9766 28.9229C43.8829 31.5614 42.1114 35.816 41.04 38.3779C39.9688 40.9395 38.8545 43.6142 38.5625 44.3223L38.0312 45.6084H34.9736L35.043 45.4346C35.2257 44.9752 38.4711 37.2537 39.6748 34.415C43.0387 26.4813 43.7292 24.8521 44.418 23.2217C46.0086 19.4555 47.4027 16.1673 47.6777 15.5342L47.9668 14.8691L49.6025 14.9092ZM204.86 17.5205H186.174V28.7832H202.49V31.4258H186.174V42.9668H205V45.6084H183.208L183.295 45.0869C183.342 44.7944 183.382 37.8821 183.383 29.7217L183.385 14.8789H204.86V17.5205ZM297.814 31.8564C296.902 31.8564 296.054 32.0244 295.271 32.3604C294.503 32.6964 293.838 33.1684 293.278 33.7764C292.719 34.3842 292.286 35.1038 291.982 35.9355C291.678 36.7515 291.526 37.6564 291.526 38.6484C291.526 39.6243 291.678 40.5285 291.982 41.3604C292.286 42.1762 292.718 42.8882 293.278 43.4961C293.838 44.1041 294.503 44.5761 295.271 44.9121C296.054 45.232 296.903 45.3916 297.814 45.3916C298.726 45.3916 299.566 45.232 300.334 44.9121C301.118 44.5761 301.791 44.1041 302.351 43.4961C302.91 42.8882 303.342 42.1762 303.646 41.3604C303.966 40.5285 304.126 39.6243 304.126 38.6484C304.126 37.6564 303.966 36.7515 303.646 35.9355C303.343 35.1039 302.91 34.3842 302.351 33.7764C301.791 33.1684 301.118 32.6964 300.334 32.3604C299.566 32.0244 298.726 31.8565 297.814 31.8564ZM264.953 45.1758H269.298C270.178 45.1757 270.986 45.0237 271.722 44.7197C272.474 44.3997 273.114 43.9519 273.642 43.376C274.186 42.784 274.602 42.088 274.89 41.2881C275.194 40.4881 275.346 39.5916 275.346 38.5996C275.346 37.6078 275.194 36.712 274.89 35.9121C274.602 35.1121 274.186 34.4237 273.642 33.8477C273.098 33.2558 272.458 32.8079 271.722 32.5039C270.986 32.184 270.178 32.0245 269.298 32.0244H264.953V45.1758Z" fill="currentColor"/>
</svg>